<svg width="512" height="512" viewBox="0 0 512 512" fill="none" xmlns="http://www.w3.org/2000/svg">
<path d="M168 321.269H185.542C181.321 328.543 175.274 334.589 168 338.811V321.269ZM152 281.269V249.948C146.705 249.043 141.295 249.043 136 249.948V281.269C136 283.391 135.157 285.426 133.657 286.926C132.157 288.426 130.122 289.269 128 289.269H96.6792C95.7739 294.564 95.7739 299.974 96.6792 305.269H128C130.122 305.269 132.157 306.112 133.657 307.612C135.157 309.112 136 311.147 136 313.269V344.589C141.295 345.496 146.705 345.496 152 344.589V313.269C152 311.147 152.843 309.112 154.343 307.612C155.844 306.112 157.878 305.269 160 305.269H191.321C192.227 299.974 192.227 294.564 191.321 289.269H160C157.878 289.269 155.844 288.426 154.343 286.926C152.843 285.426 152 283.391 152 281.269ZM120 338.811V321.269H102.458C106.68 328.543 112.726 334.589 120 338.811V338.811ZM120 255.726C112.726 259.948 106.679 265.995 102.458 273.269H120V255.726ZM216 217.269H296C300.244 217.269 304.313 215.583 307.314 212.583C310.315 209.582 312 205.512 312 201.269C312 197.026 310.315 192.956 307.314 189.955C304.313 186.955 300.244 185.269 296 185.269H216C211.757 185.269 207.687 186.955 204.687 189.955C201.686 192.956 200 197.026 200 201.269C200 205.512 201.686 209.582 204.687 212.583C207.687 215.583 211.757 217.269 216 217.269V217.269ZM338.119 264.022C336.379 264.025 334.688 264.595 333.301 265.646C331.914 266.697 330.907 268.171 330.434 269.846C329.961 271.52 330.046 273.303 330.678 274.925C331.309 276.546 332.452 277.918 333.933 278.831C335.414 279.744 337.152 280.15 338.885 279.987C340.617 279.823 342.249 279.099 343.533 277.924C344.816 276.75 345.682 275.189 345.999 273.478C346.316 271.767 346.066 269.999 345.287 268.443C344.625 267.11 343.602 265.989 342.335 265.208C341.068 264.426 339.608 264.015 338.119 264.022V264.022ZM168 255.726V273.269H185.542C181.321 265.995 175.274 259.948 168 255.726V255.726ZM397.9 235.811C396.144 235.225 394.24 235.267 392.511 235.928C390.783 236.59 389.337 237.83 388.42 239.438C387.503 241.045 387.172 242.921 387.484 244.746C387.795 246.57 388.729 248.23 390.127 249.443C391.525 250.656 393.301 251.347 395.151 251.397C397.001 251.448 398.812 250.855 400.274 249.721C401.736 248.586 402.76 246.979 403.17 245.175C403.581 243.37 403.353 241.478 402.525 239.823C401.576 237.927 399.915 236.485 397.905 235.811H397.9ZM465.667 391.021C453.987 407.892 436.148 419.502 415.992 423.349C395.836 427.197 374.976 422.975 357.902 411.592L341.72 400.8C318.716 385.432 291.666 377.242 264 377.269H248C220.335 377.242 193.285 385.432 170.28 400.8L154.093 411.591C140.669 420.541 124.807 425.124 108.678 424.712C92.5493 424.3 76.9418 418.914 63.992 409.29C51.0422 399.667 41.383 386.276 36.3364 370.951C31.2898 355.627 31.1026 339.117 35.8002 323.682L49.9752 277.106C58.0624 250.534 74.4747 227.265 96.7915 210.73C119.108 194.195 146.148 185.269 173.923 185.269H188.303C185.488 190.131 184.003 195.649 183.998 201.268C183.994 206.886 185.47 212.407 188.278 217.273C191.086 222.14 195.126 226.181 199.993 228.989C204.859 231.797 210.38 233.273 215.998 233.269H295.998C301.617 233.273 307.137 231.797 312.004 228.989C316.87 226.181 320.911 222.14 323.718 217.273C326.526 212.407 328.002 206.886 327.998 201.268C327.994 195.649 326.509 190.131 323.693 185.269H338.073C365.848 185.269 392.888 194.195 415.205 210.73C437.522 227.265 453.934 250.534 462.021 277.106L476.2 323.682C479.668 334.97 480.522 346.898 478.698 358.565C476.874 370.232 472.42 381.33 465.672 391.021H465.667ZM208 297.269C208 284.611 204.247 272.237 197.214 261.712C190.182 251.188 180.186 242.985 168.492 238.141C156.798 233.297 143.929 232.029 131.514 234.499C119.1 236.968 107.696 243.064 98.7454 252.014C89.7948 260.965 83.6994 272.368 81.23 284.783C78.7605 297.198 80.0279 310.066 84.8719 321.761C89.7159 333.455 97.919 343.451 108.444 350.483C118.968 357.515 131.342 361.269 144 361.269C160.968 361.25 177.236 354.501 189.234 342.503C201.232 330.505 207.981 314.237 208 297.269V297.269ZM248 337.269C248 335.147 247.157 333.112 245.657 331.612C244.157 330.112 242.122 329.269 240 329.269H232C229.878 329.269 227.844 330.112 226.343 331.612C224.843 333.112 224 335.147 224 337.269C224 339.391 224.843 341.426 226.343 342.926C227.844 344.426 229.878 345.269 232 345.269H240C242.122 345.269 244.157 344.426 245.657 342.926C247.157 341.426 248 339.391 248 337.269ZM288 337.269C288 335.147 287.157 333.112 285.657 331.612C284.157 330.112 282.122 329.269 280 329.269H272C269.878 329.269 267.844 330.112 266.343 331.612C264.843 333.112 264 335.147 264 337.269C264 339.391 264.843 341.426 266.343 342.926C267.844 344.426 269.878 345.269 272 345.269H280C282.122 345.269 284.157 344.426 285.657 342.926C287.157 341.426 288 339.391 288 337.269ZM348.865 293.488C354.132 290.856 358.247 286.38 360.43 280.912C362.612 275.444 362.708 269.364 360.701 263.83C358.693 258.295 354.722 253.691 349.541 250.893C344.361 248.096 338.333 247.299 332.604 248.656C326.874 250.012 321.844 253.427 318.468 258.251C315.092 263.074 313.606 268.97 314.293 274.817C314.981 280.665 317.793 286.056 322.196 289.965C326.598 293.874 332.284 296.029 338.171 296.02C341.884 296.013 345.544 295.147 348.865 293.488V293.488ZM388.22 318.533C385.374 312.84 380.382 308.51 374.343 306.498C368.304 304.485 361.713 304.953 356.02 307.8C350.327 310.647 345.998 315.638 343.985 321.677C341.972 327.716 342.44 334.307 345.287 340V340C348.134 345.693 353.125 350.023 359.164 352.035C365.203 354.048 371.793 353.58 377.487 350.733C383.18 347.887 387.509 342.895 389.522 336.857C391.535 330.818 391.067 324.227 388.22 318.534V318.533ZM395.398 267.412C401.445 267.417 407.271 265.146 411.719 261.049C416.167 256.953 418.909 251.333 419.4 245.306C419.892 239.28 418.096 233.289 414.371 228.527C410.645 223.764 405.263 220.579 399.296 219.604C393.328 218.63 387.213 219.938 382.166 223.269C377.12 226.599 373.512 231.707 372.061 237.577C370.61 243.447 371.422 249.648 374.336 254.946C377.249 260.244 382.051 264.251 387.785 266.169C390.239 266.993 392.811 267.413 395.4 267.412H395.398ZM445.462 289.912C442.98 284.945 438.852 280.993 433.782 278.729C428.712 276.465 423.014 276.028 417.658 277.494C412.303 278.96 407.621 282.238 404.411 286.768C401.202 291.299 399.662 296.803 400.055 302.341C400.448 307.88 402.749 313.111 406.567 317.143C410.384 321.175 415.481 323.759 420.99 324.454C426.499 325.149 432.078 323.913 436.778 320.955C441.477 317.998 445.006 313.502 446.762 308.235C447.768 305.246 448.171 302.088 447.948 298.942C447.725 295.797 446.88 292.727 445.462 289.91V289.912ZM426.526 293.057C424.77 292.472 422.866 292.514 421.137 293.175C419.409 293.837 417.963 295.078 417.047 296.686C416.13 298.294 415.8 300.17 416.112 301.994C416.423 303.819 417.358 305.479 418.757 306.691C420.155 307.904 421.93 308.594 423.781 308.644C425.631 308.694 427.441 308.101 428.903 306.966C430.365 305.831 431.388 304.224 431.798 302.419C432.209 300.615 431.98 298.723 431.152 297.068C430.683 296.128 430.033 295.289 429.239 294.601C428.445 293.912 427.523 293.387 426.526 293.055V293.057ZM363.175 322.111C361.76 322.819 360.587 323.93 359.803 325.304C359.019 326.679 358.661 328.255 358.773 329.833C358.885 331.411 359.463 332.921 360.433 334.171C361.403 335.421 362.722 336.355 364.223 336.856C365.724 337.356 367.339 337.4 368.865 336.982C370.391 336.565 371.759 335.704 372.796 334.509C373.833 333.314 374.492 331.838 374.69 330.268C374.888 328.698 374.617 327.105 373.909 325.69C372.959 323.793 371.295 322.351 369.283 321.68C367.27 321.008 365.074 321.163 363.175 322.109V322.111ZM293.882 130.543C294.528 131.372 295.33 132.065 296.244 132.584C297.158 133.103 298.164 133.436 299.207 133.566C300.25 133.696 301.307 133.619 302.32 133.339C303.333 133.06 304.281 132.584 305.11 131.938C305.939 131.293 306.632 130.49 307.151 129.577C307.67 128.663 308.003 127.656 308.133 126.614C308.262 125.571 308.185 124.513 307.906 123.5C307.627 122.488 307.151 121.54 306.505 120.711C300.525 113.017 292.866 106.791 284.113 102.509C275.36 98.2261 265.745 95.9998 256 95.9998C246.256 95.9998 236.64 98.2261 227.887 102.509C219.134 106.791 211.475 113.017 205.495 120.711C204.191 122.385 203.606 124.508 203.868 126.614C204.129 128.719 205.217 130.635 206.891 131.938C208.565 133.242 210.688 133.828 212.794 133.566C214.899 133.304 216.814 132.217 218.118 130.543C222.602 124.77 228.346 120.098 234.912 116.885C241.477 113.671 248.69 112 256 112C263.31 112 270.523 113.671 277.089 116.885C283.654 120.098 289.398 124.77 293.882 130.543V130.543ZM181.621 112.284C182.45 112.929 183.398 113.405 184.411 113.684C185.424 113.963 186.482 114.039 187.525 113.909C188.567 113.779 189.574 113.445 190.487 112.926C191.401 112.407 192.203 111.713 192.848 110.884C200.328 101.267 209.905 93.4852 220.849 88.1323C231.793 82.7795 243.815 79.9969 255.998 79.9969C268.181 79.9969 280.204 82.7795 291.148 88.1323C302.092 93.4852 311.669 101.267 319.148 110.884C320.452 112.558 322.367 113.645 324.473 113.907C326.578 114.169 328.702 113.583 330.376 112.279C332.05 110.976 333.137 109.06 333.399 106.955C333.66 104.849 333.075 102.726 331.771 101.052C322.796 89.5134 311.304 80.1769 298.172 73.7546C285.04 67.3323 270.615 63.9939 255.996 63.9939C241.378 63.9939 226.953 67.3323 213.821 73.7546C200.689 80.1769 189.197 89.5134 180.221 101.052C179.575 101.881 179.099 102.83 178.82 103.843C178.54 104.856 178.463 105.915 178.593 106.958C178.724 108.001 179.058 109.009 179.577 109.922C180.097 110.836 180.791 111.639 181.621 112.284V112.284ZM256 128C251.126 127.987 246.314 129.094 241.936 131.236C237.558 133.378 233.73 136.497 230.749 140.353C229.466 142.028 228.897 144.143 229.165 146.236C229.434 148.33 230.519 150.232 232.184 151.529C233.849 152.826 235.959 153.412 238.054 153.161C240.15 152.909 242.061 151.839 243.371 150.185C244.866 148.26 246.78 146.701 248.969 145.629C251.158 144.557 253.563 144 256 144C258.437 144 260.842 144.557 263.031 145.629C265.22 146.701 267.135 148.26 268.629 150.185C269.94 151.839 271.851 152.909 273.946 153.161C276.041 153.412 278.151 152.826 279.816 151.529C281.481 150.232 282.566 148.33 282.835 146.236C283.104 144.143 282.535 142.028 281.251 140.353C278.27 136.497 274.443 133.378 270.064 131.236C265.686 129.094 260.874 127.987 256 128V128Z" fill="url(#paint0_linear_3_27018)" id="id_101"></path>
<defs>
<linearGradient id="paint0_linear_3_27018" x1="111.429" y1="457.933" x2="400.571" y2="168.791" gradientUnits="userSpaceOnUse">
<stop stop-color="#d809e3" id="id_102"></stop>
<stop offset="1" stop-color="#09bfe3" id="id_103"></stop>
</linearGradient>
</defs>
</svg>